<svg xmlns="http://www.w3.org/2000/svg" xml:space="preserve" viewBox="0 0 1000 1000"><path d="M985.5 465.1 759.1 238.7c-4.6-4.6-11-7.3-17.5-7.3h-27.5c-34.5 0-65.2 22.1-76 54.9l-42.7 128.9c-3.3 10 4.1 20.4 14.7 20.4h76.2c10.5 0 17.9 10.3 14.6 20.2l-30.4 91.6c-3.4 10.1-12.8 17-23.5 17h-83.1c-10.7 0-20.2 6.8-23.5 17l-61.2 184.5c-18.8 56.4-61 99.5-114.5 119.4 11.7 11.7 21.1 12 28.5 12H613c6.6 0 12.9-2.6 17.5-7.3l355.2-355.2c19.1-19.2 19.1-50.4-.2-69.7zm-582 119.4c3.3-9.9-4.1-20.1-14.5-20.1h-74.6c-10.2 0-17.5-10-14.3-19.7l30.5-92.1c3.4-10.1 12.8-17 23.5-17H435c10.7 0 20.2-6.8 23.5-17l61.1-184.1c18.7-56.5 61-99.9 114.6-119.8-11.7-11.7-21.1-12-28.5-12H387.2c-6.6 0-12.9 2.6-17.5 7.3L14.5 465.1c-19.3 19.3-19.3 50.6 0 69.9l226.4 226.4c4.6 4.6 11 7.3 17.5 7.3h26.2c34.6 0 65.2-22.2 76.1-55l42.8-129.2z"/></svg>