<svg xmlns="http://www.w3.org/2000/svg" viewBox="0 0 150 23.1" width="150" height="23.1" fill="currentColor"><title>Asset 2</title><path d="M14.457 6.243V4.436H0V0h16.557a2.15 2.15 0 0 1 0.936 0.229 3.155 3.155 0 0 1 1.462 1.462 2.213 2.213 0 0 1 0.229 0.969v4.963a2.211 2.211 0 0 1 -0.229 0.969 3.155 3.155 0 0 1 -1.462 1.462 2.141 2.141 0 0 1 -0.936 0.231h-1.348l9.299 12.814h-5.318L9.563 10.286H4.732v6.243H0V6.243Z"/><path d="M36.802 6.243V4.436H25.991v7.656H41.535v4.436H23.888a2.141 2.141 0 0 1 -0.936 -0.229 3.155 3.155 0 0 1 -1.462 -1.462 2.205 2.205 0 0 1 -0.229 -0.969V2.662a2.205 2.205 0 0 1 0.229 -0.969A3.155 3.155 0 0 1 22.951 0.229 2.141 2.141 0 0 1 23.888 0h15.016a2.15 2.15 0 0 1 0.936 0.229 3.155 3.155 0 0 1 1.462 1.462 2.214 2.214 0 0 1 0.232 0.971v4.961a2.213 2.213 0 0 1 -0.229 0.969 3.155 3.155 0 0 1 -1.462 1.462 2.141 2.141 0 0 1 -0.936 0.229H27.798V6.243Z"/><path d="M48.367 0v12.092h13.801v4.436H46.265a2.141 2.141 0 0 1 -0.936 -0.229 3.155 3.155 0 0 1 -1.462 -1.462 2.205 2.205 0 0 1 -0.229 -0.969V0Z"/><path d="M84.415 16.529h-4.733v-2.728H71.403l-2.17 2.728h-5.554l11.5 -15.345q0.755 -0.656 2.087 -0.92A13.635 13.635 0 0 1 79.912 0a8.614 8.614 0 0 1 1.84 0.181 3.776 3.776 0 0 1 1.413 0.608 2.836 2.836 0 0 1 0.92 1.151 4.378 4.378 0 0 1 0.329 1.807ZM79.485 5.125a0.714 0.714 0 0 0 -0.525 -0.197 1.141 1.141 0 0 0 -0.74 0.329 7.769 7.769 0 0 0 -0.673 0.656l-3.22 3.911h5.355V5.521a0.571 0.571 0 0 0 -0.197 -0.395Z"/><path d="M100.975 6.309V4.436h-14.458V0h16.557a2.15 2.15 0 0 1 0.936 0.229 3.155 3.155 0 0 1 1.469 1.463 2.213 2.213 0 0 1 0.229 0.969v5.027a2.211 2.211 0 0 1 -0.229 0.969 3.155 3.155 0 0 1 -1.462 1.462 2.141 2.141 0 0 1 -0.936 0.229h-11.833v6.178h-4.732V6.309Z"/><path d="M110.175 10.286a2.141 2.141 0 0 1 -0.936 -0.229 3.155 3.155 0 0 1 -1.462 -1.463 2.205 2.205 0 0 1 -0.229 -0.969V2.662a2.207 2.207 0 0 1 0.229 -0.969 3.155 3.155 0 0 1 1.462 -1.463A2.141 2.141 0 0 1 110.175 0h17.447v4.436h-15.345v1.807h12.716a2.15 2.15 0 0 1 0.936 0.229 3.155 3.155 0 0 1 1.463 1.463 2.214 2.214 0 0 1 0.229 0.969v4.961a2.211 2.211 0 0 1 -0.229 0.969 3.155 3.155 0 0 1 -1.462 1.462 2.141 2.141 0 0 1 -0.936 0.229h-19.322v-4.434h17.219v-1.807Z"/><path d="M145.268 6.243V4.436h-10.815v7.656h15.542v4.436h-17.642a2.141 2.141 0 0 1 -0.936 -0.229 3.155 3.155 0 0 1 -1.462 -1.462 2.204 2.204 0 0 1 -0.229 -0.969V2.662a2.205 2.205 0 0 1 0.229 -0.969 3.155 3.155 0 0 1 1.462 -1.463A2.141 2.141 0 0 1 132.354 0h15.016a2.15 2.15 0 0 1 0.936 0.229 3.155 3.155 0 0 1 1.462 1.462 2.213 2.213 0 0 1 0.229 0.969v4.963a2.211 2.211 0 0 1 -0.229 0.969 3.155 3.155 0 0 1 -1.462 1.462 2.141 2.141 0 0 1 -0.936 0.229h-11.106V6.243Z"/></svg>